<svg xmlns="http://www.w3.org/2000/svg" viewBox="0 0 640 640" fill="none" role="img" aria-label="Hair clipper">
  <rect width="640" height="640" fill="#F4F2EC"/>
  <rect x="48" y="48" width="544" height="544" stroke="#DEDAD0" stroke-width="1"/>
  <g transform="translate(220 90)">
    <rect x="48" y="20" width="104" height="36" rx="4" fill="#17181A"/>
    <rect x="56" y="28" width="8" height="20" fill="#CBA96B"/>
    <rect x="72" y="28" width="8" height="20" fill="#CBA96B"/>
    <rect x="88" y="28" width="8" height="20" fill="#CBA96B"/>
    <rect x="104" y="28" width="8" height="20" fill="#CBA96B"/>
    <rect x="120" y="28" width="8" height="20" fill="#CBA96B"/>
    <rect x="136" y="28" width="8" height="20" fill="#CBA96B"/>
    <path d="M40 56h120l12 28H28l12-28Z" fill="#26282B"/>
    <rect x="52" y="84" width="96" height="280" rx="18" fill="#17181A"/>
    <rect x="68" y="120" width="64" height="48" rx="6" fill="#26282B"/>
    <rect x="78" y="132" width="44" height="10" rx="2" fill="#8A6D3B"/>
    <rect x="78" y="150" width="28" height="6" rx="1" fill="#9AA1A6"/>
    <circle cx="100" cy="220" r="10" fill="#8A6D3B"/>
    <rect x="84" y="280" width="32" height="48" rx="4" fill="#26282B"/>
    <path d="M70 364h60l-8 48H78l-8-48Z" fill="#26282B"/>
  </g>
  <text x="48" y="600" font-family="IBM Plex Mono, monospace" font-size="12" fill="#8A6D3B" letter-spacing="2">CLIPPER</text>
</svg>
