<svg xmlns="http://www.w3.org/2000/svg" viewBox="0 0 640 640" fill="none" role="img" aria-label="Barber comb">
  <rect width="640" height="640" fill="#F4F2EC"/>
  <rect x="48" y="48" width="544" height="544" stroke="#DEDAD0" stroke-width="1"/>
  <g transform="translate(80 250) rotate(-12 240 50)">
    <rect x="20" y="40" width="440" height="36" rx="8" fill="#17181A"/>
    <rect x="40" y="16" width="6" height="28" fill="#17181A"/>
    <rect x="56" y="16" width="6" height="28" fill="#17181A"/>
    <rect x="72" y="16" width="6" height="28" fill="#17181A"/>
    <rect x="88" y="16" width="6" height="28" fill="#17181A"/>
    <rect x="104" y="16" width="6" height="28" fill="#17181A"/>
    <rect x="120" y="16" width="6" height="28" fill="#17181A"/>
    <rect x="136" y="16" width="6" height="28" fill="#17181A"/>
    <rect x="152" y="16" width="6" height="28" fill="#17181A"/>
    <rect x="168" y="16" width="6" height="28" fill="#17181A"/>
    <rect x="184" y="16" width="6" height="28" fill="#17181A"/>
    <rect x="220" y="12" width="8" height="32" fill="#8A6D3B"/>
    <rect x="240" y="12" width="8" height="32" fill="#8A6D3B"/>
    <rect x="260" y="12" width="8" height="32" fill="#8A6D3B"/>
    <rect x="280" y="12" width="8" height="32" fill="#8A6D3B"/>
    <rect x="300" y="12" width="8" height="32" fill="#8A6D3B"/>
    <rect x="320" y="12" width="8" height="32" fill="#8A6D3B"/>
    <rect x="340" y="12" width="8" height="32" fill="#8A6D3B"/>
    <rect x="360" y="12" width="8" height="32" fill="#8A6D3B"/>
    <rect x="380" y="12" width="8" height="32" fill="#8A6D3B"/>
    <rect x="400" y="12" width="8" height="32" fill="#8A6D3B"/>
  </g>
  <text x="48" y="600" font-family="IBM Plex Mono, monospace" font-size="12" fill="#8A6D3B" letter-spacing="2">COMB</text>
</svg>
