<svg xmlns="http://www.w3.org/2000/svg" viewBox="0 0 640 640" fill="none" role="img" aria-label="Shampoo bottle">
  <rect width="640" height="640" fill="#F4F2EC"/>
  <rect x="48" y="48" width="544" height="544" stroke="#DEDAD0" stroke-width="1"/>
  <g transform="translate(240 70)">
    <path d="M60 30h40c10 0 18 8 18 18v30H42V48c0-10 8-18 18-18Z" fill="#17181A"/>
    <rect x="70" y="10" width="20" height="28" rx="4" fill="#26282B"/>
    <path d="M30 78h100c16 0 30 14 30 30v260c0 24-20 44-44 44H44c-24 0-44-20-44-44V108c0-16 14-30 30-30Z" fill="#17181A"/>
    <rect x="55" y="140" width="70" height="140" rx="6" fill="#26282B"/>
    <text x="62" y="220" font-family="Libre Caslon Display, serif" font-size="20" fill="#CBA96B">WELLA</text>
  </g>
  <text x="48" y="600" font-family="IBM Plex Mono, monospace" font-size="12" fill="#8A6D3B" letter-spacing="2">SHAMPOO</text>
</svg>
