<svg xmlns="http://www.w3.org/2000/svg" viewBox="0 0 640 640" fill="none" role="img" aria-label="Hair trimmer">
  <rect width="640" height="640" fill="#F4F2EC"/>
  <rect x="48" y="48" width="544" height="544" stroke="#DEDAD0" stroke-width="1"/>
  <g transform="translate(250 80)">
    <path d="M54 20h52l6 18H48l6-18Z" fill="#17181A"/>
    <rect x="58" y="8" width="6" height="18" fill="#CBA96B"/>
    <rect x="70" y="8" width="6" height="18" fill="#CBA96B"/>
    <rect x="82" y="8" width="6" height="18" fill="#CBA96B"/>
    <rect x="94" y="8" width="6" height="18" fill="#CBA96B"/>
    <rect x="48" y="38" width="64" height="320" rx="14" fill="#17181A"/>
    <rect x="60" y="70" width="40" height="40" rx="4" fill="#26282B"/>
    <rect x="68" y="82" width="24" height="8" rx="1" fill="#8A6D3B"/>
    <circle cx="80" cy="160" r="8" fill="#8A6D3B"/>
    <rect x="66" y="220" width="28" height="56" rx="3" fill="#26282B"/>
    <path d="M58 358h44l-6 42H64l-6-42Z" fill="#26282B"/>
  </g>
  <text x="48" y="600" font-family="IBM Plex Mono, monospace" font-size="12" fill="#8A6D3B" letter-spacing="2">TRIMMER</text>
</svg>
